<svg fill="CurrentColor" viewBox="0 0 48 48" xmlns="http://www.w3.org/2000/svg">
  <path d="M15.14 41.94a4.5 4.5 0 1 1 4.5-4.5 4.51 4.51 0 0 1-4.5 4.5zm0-6a1.5 1.5 0 1 0 1.5 1.5 1.5 1.5 0 0 0-1.5-1.5zM39 37.56a6.34 6.34 0 0 1-.22 1.44H42v-3h-3.25a5.61 5.61 0 0 1 .25 1.56zm-10.47-7.65h-1.21a2.32 2.32 0 0 0-2.41-2.2 2.45 2.45 0 0 0-2.42 2.06V27h-1.7L9 30.38V27H6v9.07a3 3 0 0 0 3 3h.37a5.86 5.86 0 0 1 .08-3.58 6 6 0 0 1 10.92-1h7.35a6 6 0 0 1 10.47 0H42v-1.68a30.38 30.38 0 0 0-13.47-2.9zM21 39h6.2a5.84 5.84 0 0 1-.2-1.47 6 6 0 0 1 .17-1.53h-6.24a6 6 0 0 1 .21 1.54A5.84 5.84 0 0 1 21 39zm12 2.95a4.5 4.5 0 1 1 4.5-4.5 4.51 4.51 0 0 1-4.5 4.49zm0-6a1.5 1.5 0 1 0 1.5 1.5 1.5 1.5 0 0 0-1.5-1.51zm7.8-19.6 1.2-1.81-1.81-1.27L39 15.08l-1.74-1.22L36 15.67l1.73 1.21-1.26 1.81-1.74-1.22-1.26 1.81 1.8 1.26 1.27-1.8L38.23 20l1.27-1.8-1.74-1.22L39 15.13zM38.44 12l-1.81-1.26-1.26 1.8 1.8 1.27zm-3.59-2.49L33 8.24l-1.26 1.81 1.8 1.26zm-.21 7.93 1.27-1.81-1.74-1.22 1.27-1.8-1.81-1.26-1.26 1.8 1.73 1.22-1.26 1.8zm-4.8-.68 1.8 1.24 1.27-1.8L31.1 15zm-3.52-2.47 1.73 1.22 1.27-1.81 1.73 1.22 1.27-1.8-1.74-1.22 1.27-1.81-1.74-1.21 1.27-1.81-1.23-.86L24 15l-6.13-8.79-1.23.86 1.26 1.81-1.66 1.17L15 8.24l-1.8 1.27 1.26 1.8 1.74-1.22 1.26 1.81-1.76 1.22 1.3 1.8 1.81-1.27-1.27-1.8 1.67-1.17 1.26 1.81-1.77 1.21 1.3 1.81 1.74-1.22 1.39 2-4.57 6.51 1.23.87L24 17.58l4.25 6.08 1.23-.87-4.57-6.51zm4.19-2.44-1.26 1.8-1.67-1.16 1.27-1.81zm-17.86.71-1.27-1.8L9.58 12l1.26 1.81zm-2.4 4.37 1.81-1.26-1.27-1.81-1.73 1.22-1.27-1.81L6 14.54l1.26 1.8L9 15.13zm4.13-5.58-1.8 1.26 1.26 1.8-1.73 1.22 1.26 1.81 1.81-1.27-1.27-1.8 1.74-1.22zm-4.06 5.53-1.8 1.27L9.78 20l1.81-1.26zm1.2 1.86 1.26 1.8 1.81-1.26-1.27-1.81zm3.59-2.52L16.37 18l1.81-1.26L16.91 15z"/>
</svg>
