<svg fill="CurrentColor" viewBox="0 0 48 48" xmlns="http://www.w3.org/2000/svg">
  <path d="M25.59 6.27h-.02C25.11 6.1 24.62 6 24.1 6c-.47 0-.92.09-1.35.23-.03 0-.05.02-.08.02-1.78.6-3.07 2.26-3.07 4.25 0 2.49 2.01 4.5 4.5 4.5s4.5-2.01 4.5-4.5c0-1.96-1.26-3.61-3.01-4.23ZM24.1 13a2.5 2.5 0 0 1-2.5-2.5c0-.21.03-.41.08-.6.3.07.61.11.93.11 1.25 0 2.37-.52 3.18-1.34.49.46.81 1.1.81 1.83a2.5 2.5 0 0 1-2.5 2.5Zm-6.97 27.15L18 28H8v2l1 12h6.15c1.05 0 1.91-.81 1.99-1.85Zm12.01 0L30 29c0-1.1-.9-2-2-2h-8v2l1 13h6.15c1.04 0 1.91-.8 1.99-1.85Zm12-.01L42 29c0-1.1-.9-2-2-2h-8v2l1 13h6.14c1.05 0 1.93-.81 2.01-1.86Zm-28.41-20.8c-.96-.55-2.18-.22-2.73.73L6 27l1.73 1 5-8.66ZM30 24H20v-3.67L17.18 26H14l3.75-8.08C18.39 16.64 19.58 16 21 16h6.1c1.59 0 2.88 1.29 2.89 2.88l.02 5.12Z"/>
</svg>
