<svg fill="CurrentColor" viewBox="0 0 48 48" xmlns="http://www.w3.org/2000/svg">
  <path d="M30 20H14v-2h16v2Zm-4 19h-7v-8h-8l-.02-22H33v14c.86-.24 1.76-.37 2.68-.37.11 0 .22.02.32.02V9c0-1.66-1.34-3-3-3H11C9.34 6 8 7.34 8 9v23.96L16.97 42h11.67C27 41 26 39 26 39Zm4-26H14v2h16v-2ZM14 25h9v-2h-9v2Zm24.48 14.36c-.83.41-1.76.64-2.74.64-2.25 0-4.22-1.2-5.32-3h4.11l.91-2h-5.81a6.284 6.284 0 0 1-.07-2h6.79l.91-2h-7.1c1.02-2.05 3.14-3.47 5.58-3.47 1 0 1.95.24 2.79.67l.83-1.82a8.14 8.14 0 0 0-3.62-.85c-3.57 0-6.61 2.29-7.75 5.47H26v2h1.54c-.02.25-.04.51-.04.76 0 .42.04.83.1 1.24H26v2h2.16c1.26 2.94 4.18 5 7.57 5 1.53 0 3.06-.44 4.29-1.16l-1.55-1.48Z"/>
</svg>
